<?xml version="1.0" encoding="utf-8"?>
<!-- Generator: Adobe Illustrator 16.0.0, SVG Export Plug-In . SVG Version: 6.00 Build 0)  -->
<!DOCTYPE svg PUBLIC "-//W3C//DTD SVG 1.1//EN" "http://www.w3.org/Graphics/SVG/1.1/DTD/svg11.dtd">
<svg version="1.1" xmlns="http://www.w3.org/2000/svg" xmlns:xlink="http://www.w3.org/1999/xlink" x="0px" y="0px"
	 width="350.22px" height="350.22px" viewBox="0 0 350.22 350.22" enable-background="new 0 0 350.22 350.22" xml:space="preserve">
<g id="Layer_3">
</g>
<g id="Layer_1">
</g>
<g id="Layer_2">
	<path d="M75.109,234.53c-5.79-1.14-11.54-2.74-17.21-4.84c-20.43-7.56-37.62-20.32-56.279-30.71c-0.79-5.75-1.301-11.58-1.5-17.5
		c21.35,10.75,40.149,25.39,62.72,34.23c1.96,0.77,3.91,1.46,5.87,2.07c0.149,0.26,0.29,0.52,0.42,0.79c0.47,0.97,0.99,1.97,1.51,3
		c1.66,3.23,3.38,6.57,3.96,9.35c0.06,0.34,0.21,1.41,0.33,2.27C74.989,233.61,75.05,234.06,75.109,234.53z"/>
	<path d="M339.58,235.35c-1.94,5.29-4.131,10.47-6.551,15.51c-0.52-0.36-1.02-0.8-1.489-1.33c-22.19-24.94-53.9-51.57-90.141-56.84
		c-30.479-4.44-57.71,16.67-83.22,29.24c-1.68-1.43-3.32-2.88-4.92-4.37c-2.33-2.17-4.76-4.44-7.21-6.78
		c5.3-2.26,10.5-4.77,15.59-7.45c14.24-7.49,28.24-15.55,43.66-21c15.2-5.37,30.479-5.95,46.399-2.65
		C286.159,186.83,317.02,211.06,339.58,235.35z"/>
	<path d="M130.39,289.83c-24.42,6.89-50.42,7.13-75-1.96c-7.93-2.93-15.37-6.65-22.59-10.71c-6-8.35-11.28-17.24-15.74-26.59
		c14.01,8.41,27.75,17.24,43.26,23.32c19.59,7.68,39.21,7.74,58.101,3.38c5.56,3.46,6.56,5.19,6.67,5.4
		C126.069,284.87,128.05,287.47,130.39,289.83z"/>
	<path d="M318.58,275.52c-2.94,4.21-6.07,8.28-9.37,12.2c-19.71-17.71-43.801-33-70.32-36.86c-10.91-1.59-21.4,0.1-31.54,3.49
		c-0.92-0.54-1.84-1.08-2.77-1.62c-4.341-2.54-8.71-5.1-13.051-7.72c3.681-1.63,7.431-3.14,11.261-4.5
		c15.199-5.38,30.479-5.96,46.399-2.66C275,243.21,298.779,258.15,318.58,275.52z"/>
	<path d="M163.26,332.98c-4.88,2.67-9.7,5.199-14.45,7.359c-4.41,2-8.91,3.79-13.47,5.34c-9.37-2.17-18.44-5.1-27.16-8.71
		c15.229-2.47,30.06-8.04,44.11-15.069c1.84,1.96,3.81,3.76,5.64,5.439c1.49,1.37,2.9,2.67,3.66,3.54
		C162.17,331.54,162.729,332.24,163.26,332.98z"/>
	<path d="M285.21,311.27c-3.98,3.23-8.101,6.28-12.36,9.15c-0.19-0.35-0.37-0.7-0.55-1.05c-3.3-6.39-7.9-13.21-13.351-20.04
		C268.04,302.32,276.83,306.41,285.21,311.27z"/>
	<g>
		<g>
			<path fill-rule="evenodd" clip-rule="evenodd" d="M266.09,324.75c-14.72,8.98-30.88,15.84-48.04,20.17
				c-3.98-6.66-7.08-11.08-7.8-10.91c-6.431,1.57-9.311,3.99-13.33,9.11c-0.931,1.2-0.71,3.729-0.99,5.87
				c-3.18,0.38-6.38,0.67-9.61,0.87c-1.55-1.33-2.899-2.971-4.439-4.54c-5.561-5.66-8.971-13.62-14.25-19.69
				c-3.91-4.49-14.5-11.77-14.61-18.439c-0.149-8.631,19.86-3.36,18.43-13.4c-0.46-3.21-9.22-9.75-11.34-11.82
				c-2.45-2.39-4.989-6.05-7.569-8.06c-1.801,5.46,0.29,19.26-10.341,14.93c-2.89-1.17-8.46-6.41-9.81-9.45
				c-1.89-4.24-8.69-8.37-12.61-10.61c-2.46-1.4-16.38-8.09-14.5-12.4c0.48-1.08,3.23-4.01,3.311-4.53
				c5.55-2.05,7.26-4.7,11.649-7.46c-3.58-2.12-12.27-16.93-16.21-13.27c-2.58,2.4-6.1,3.19-7.859,6.51
				c-1.431,2.69-4.45,8.92-7.92,9.11c-4.181,0.24-5.17-14.29-5.82-17.43c-1.01-4.89-3.97-9.87-6.12-14.26
				c-3.49-7.15-10.24-10.21-13.89-16.52c-2.48-4.29,14.17-6.04,16.81-7.66c4.38-2.68,7.19-2.02,5.25-8.22
				c-0.229-0.74-0.229-3.12-1.13-5.79c-1.68-7.09-6.479-9.16-14.08-5.4c-5.81,2.87-9.899,0.43-8.78-6.46
				c1.08-6.69,3.311-12.77,1.69-20.3c-0.91-4.17-3.06-20.82,6.31-15.56c3.101,1.75,7.12,3.24,10.69,3.38
				c6.84,0.28,5.13-3.7,6.91-9.88c3.29-11.41,1.939-13.23-9.66-13.66c-5.06-0.19,0.55-6.35,2.42-6.93
				c4.35-1.36,11.48-10.53,12.91-13.31c1.74-3.39,3.189-6.26,4.71-10.07c3.52-8.79,10.28,9,10.6,10.58
				c3.28-1.04,11.07-7.17,12.69-10.44c-2.16-1.36-12.811-8.25-8.83-11.09c1.15-0.83,4.46-0.9,5.86-1.29
				c3.96-1.1,5.8-3.42,8.659-6.05c2.74-2.54,11.53-10.25,14.58-7.42c2.38,2.22,1.431,8.58,6.271,11.4
				c5.189-1.98,6.63-2.53,11.82-4.51c7-2.15,3.8-6.1,1.899-8.99c-5.58-8.51,8.79-4.64,15.4-4.96c6.979-0.33,16.899-3.08,13.989,2.3
				c-1.22,2.25-0.989,6.68,0.851,7.52c4.45,2.01,10.71,2.6,15.06,5.11c-0.85-11.93,4.32-11.37,13.63-5.32
				c3.49,2.27,13.971,3.31,8.9,7.24c-3.21,2.48-2.93,3.28-3.95,7.61c-0.37,1.55,6.08,4.17,6.98,4.69c1.729,0.99,5.05-3.29,8.25-3.78
				c5.439-0.84,14.75,11.98,10.85,16.67c-1.31,1.58-5.34,2.38-5.02,4.65c0.54,3.83,1.64,11.82,2.13,15.66
				c1.77,1.32,7.14-1.38,6.359,2.21c-0.869,4.02-1.409,8.66-1.399,12c0.01,3.78-4.03,1.89-6.47,1.87
				c-0.771,2.65-1.53,5.31-2.301,7.97c1.2,0.8,1.63,2.19,3.021,2.32c3.33,0.31-2.83,6.07-5.32,9.69c-1.31,1.92-3.01-1.14-5.27-1.95
				c-5.11,5.63-13.511,9.24-21.4,8.12c-0.14-1.47,7.57-3.29,10.99-5.6c4.67-3.16,8.66-9.66,10.32-15.06
				c3.35-10.98-0.211-20.87-3.891-31.09c-7.34-20.43-39.92-27.99-58.87-24.94c-18.35,2.95-37.66,11.8-52.6,30.48
				c-15.36,19.23-16.5,42.91-11.07,66.05c5.05,21.52,22.83,38.38,38.62,53.09c16.93,15.8,38.29,27.71,58.18,39.42
				c21.381,12.58,47.99,38.54,59.21,60.21C265.5,323.61,265.79,324.18,266.09,324.75z"/>
		</g>
	</g>
	<g>
		<path d="M175.109,15c42.767,0,82.974,16.654,113.215,46.896c30.241,30.241,46.896,70.448,46.896,113.214
			c0,18.926-3.272,37.458-9.722,55.075c-1.761,4.798-3.776,9.569-5.99,14.182c-3.755,7.819-8.198,15.402-13.225,22.564
			c-2.652,3.797-5.528,7.542-8.555,11.137c-6.601,7.851-13.985,15.097-21.971,21.556c-3.615,2.934-7.414,5.745-11.307,8.368
			c-1.994,1.348-4.061,2.672-6.174,3.954c-13.64,8.321-28.409,14.522-43.899,18.431c-6.564,1.657-13.363,2.908-20.228,3.72
			c-2.887,0.346-5.834,0.612-8.796,0.796c-3.378,0.218-6.824,0.328-10.245,0.328c-12.287,0-24.525-1.396-36.386-4.153
			c-8.419-1.949-16.765-4.626-24.81-7.957c-27.596-11.418-51.432-30.332-68.933-54.702c-5.516-7.676-10.354-15.85-14.393-24.314
			c-7.134-14.901-11.88-30.759-14.108-47.154c-0.72-5.237-1.177-10.523-1.36-15.717v-0.036l-0.011-0.284
			C15.037,178.99,15,177.042,15,175.11c0-42.767,16.654-82.974,46.896-113.214C92.136,31.654,132.343,15,175.109,15 M175.109,0
			C78.399,0,0,78.4,0,175.11c0,2.13,0.04,4.25,0.12,6.36v0.01c0.199,5.92,0.71,11.75,1.5,17.5c2.479,18.24,7.779,35.59,15.439,51.59
			c4.46,9.35,9.74,18.24,15.74,26.59c18.93,26.359,45,47.24,75.38,59.81c8.72,3.61,17.79,6.54,27.16,8.71
			c12.78,2.971,26.09,4.54,39.77,4.54c3.771,0,7.5-0.12,11.21-0.359c3.23-0.2,6.431-0.49,9.61-0.87
			c7.53-0.891,14.91-2.25,22.12-4.07c17.16-4.33,33.32-11.189,48.04-20.17c2.29-1.39,4.54-2.83,6.76-4.33
			c4.26-2.87,8.38-5.92,12.36-9.15c8.729-7.06,16.77-14.949,24-23.55c3.3-3.92,6.43-7.99,9.37-12.2
			c5.46-7.78,10.3-16.02,14.449-24.66c2.42-5.04,4.61-10.22,6.551-15.51c6.88-18.79,10.64-39.08,10.64-60.24
			C350.22,78.4,271.819,0,175.109,0L175.109,0z"/>
	</g>
	<path fill="none" d="M350.22,175.11c0,21.16-3.76,41.45-10.64,60.24c-1.94,5.29-4.131,10.47-6.551,15.51
		c-4.149,8.64-8.989,16.88-14.449,24.66c-2.94,4.21-6.07,8.28-9.37,12.2c-7.23,8.601-15.271,16.49-24,23.55
		c-3.98,3.23-8.101,6.28-12.36,9.15c-27.91,18.82-61.55,29.8-97.74,29.8c-13.68,0-26.989-1.569-39.77-4.54
		c-9.37-2.17-18.44-5.1-27.16-8.71C77.8,324.4,51.729,303.52,32.8,277.16c-6-8.35-11.28-17.24-15.74-26.59
		c-7.66-16-12.96-33.35-15.439-51.59c-0.79-5.75-1.301-11.58-1.5-17.5v-0.01C0.04,179.36,0,177.24,0,175.11
		C0,78.4,78.399,0,175.109,0S350.22,78.4,350.22,175.11z"/>
</g>
</svg>
